<?xml version="1.0" encoding="UTF-8"?> <svg xmlns="http://www.w3.org/2000/svg" width="51" height="50" viewBox="0 0 51 50" fill="none"> <g clip-path="url(#clip0_6934_217)"> <path fill-rule="evenodd" clip-rule="evenodd" d="M19.4209 5.6816V7.31604L21.1577 8.87264H29.6841L31.4209 7.16038V5.13679C31.4209 5.13679 29.842 3.11321 29.842 2.95755C29.842 2.80189 32.2104 0 32.2104 0H23.842L19.4209 5.6816ZM21.6314 6.38208C21.6314 6.38208 24.7104 2.02359 24.7893 2.02359C24.8683 2.02359 27.9472 2.02359 27.9472 2.02359C27.9472 2.02359 27.3156 2.95755 27.3156 3.11321C27.3156 3.26887 29.5262 6.22642 29.5262 6.22642L28.9735 6.84906H21.9472L21.6314 6.38208Z" fill="#0E3275"></path> <path d="M4.89453 13.854C5.10103 15.1381 5.47262 15.5246 6.39453 15.8776H17.3682L15.4735 13.854H4.89453Z" fill="#B80D2D"></path> <path d="M46.1055 13.854C45.899 15.1381 45.5275 15.5246 44.6055 15.8776H33.6318L35.5266 13.854H46.1055Z" fill="#B80D2D"></path> <path d="M9.94727 18.835C10.1538 20.119 10.5253 20.5055 11.4473 20.8585H19.7367L22.1052 23.1935L23.5262 21.8703L20.3683 18.835H9.94727Z" fill="#B80D2D"></path> <path d="M41.0526 18.835C40.8461 20.119 40.4745 20.5055 39.5526 20.8585H31.2631L28.8947 23.1935L27.4736 21.8703L30.6315 18.835H41.0526Z" fill="#B80D2D"></path> <path d="M16.1055 32.9998L25.5002 23.6602L34.8949 32.9998H32.0528L25.5002 26.6177L18.9476 32.9998H16.1055Z" fill="#0E3275"></path> <path d="M23.8418 32.9999L25.4997 31.2876L27.1576 32.9999H23.8418Z" fill="#0E3275"></path> <path fill-rule="evenodd" clip-rule="evenodd" d="M17.0526 9.02832H0C0.206501 10.3124 0.578079 10.6989 1.5 11.0519H16.4211L25.5 20.0024L34.5789 11.0519H49.4211C50.4322 10.5641 50.8314 10.1714 50.9211 9.02832L33.7895 9.10615L31.1053 11.6745H19.7368L17.0526 9.02832ZM28.7368 13.8538H22.1842L25.5 17.0448L28.7368 13.8538Z" fill="#0E3275"></path> </g> <mask id="mask0_6934_217" style="mask-type:alpha" maskUnits="userSpaceOnUse" x="12" y="40" width="29" height="10"> <g opacity="0.9"> <path d="M12.9912 49.0002L16.7352 40.6002H18.6552L22.4112 49.0002H20.3712L17.2992 41.5842H18.0672L14.9832 49.0002H12.9912ZM14.8632 47.2002L15.3792 45.7242H19.6992L20.2272 47.2002H14.8632Z" fill="#1A2536"></path> <path d="M25.9227 49.1442C25.3067 49.1442 24.7587 49.0442 24.2787 48.8442C23.7987 48.6442 23.4187 48.3722 23.1387 48.0282C22.8587 47.6842 22.7187 47.2882 22.7187 46.8402C22.7187 46.4242 22.8107 46.0522 22.9947 45.7242C23.1787 45.3882 23.4707 45.0762 23.8707 44.7882C24.2707 44.4922 24.7787 44.2042 25.3947 43.9242C25.8427 43.7162 26.1947 43.5322 26.4507 43.3722C26.7067 43.2122 26.8867 43.0602 26.9907 42.9162C27.0947 42.7642 27.1467 42.6122 27.1467 42.4602C27.1467 42.2522 27.0747 42.0842 26.9307 41.9562C26.7947 41.8282 26.5907 41.7642 26.3187 41.7642C26.0307 41.7642 25.8067 41.8362 25.6467 41.9802C25.4867 42.1242 25.4067 42.3082 25.4067 42.5322C25.4067 42.6522 25.4307 42.7722 25.4787 42.8922C25.5267 43.0042 25.6187 43.1362 25.7547 43.2882C25.8907 43.4322 26.0827 43.6202 26.3307 43.8522L30.7587 47.9562L29.7387 49.1442L24.8547 44.6082C24.5747 44.3522 24.3507 44.1122 24.1827 43.8882C24.0147 43.6642 23.8907 43.4442 23.8107 43.2282C23.7387 43.0122 23.7027 42.7882 23.7027 42.5562C23.7027 42.1482 23.8107 41.7882 24.0267 41.4762C24.2427 41.1642 24.5467 40.9242 24.9387 40.7562C25.3307 40.5802 25.7907 40.4922 26.3187 40.4922C26.8067 40.4922 27.2267 40.5722 27.5787 40.7322C27.9387 40.8842 28.2187 41.1042 28.4187 41.3922C28.6267 41.6802 28.7307 42.0242 28.7307 42.4242C28.7307 42.7762 28.6427 43.1002 28.4667 43.3962C28.2907 43.6842 28.0147 43.9562 27.6387 44.2122C27.2707 44.4682 26.7867 44.7282 26.1867 44.9922C25.7787 45.1762 25.4547 45.3562 25.2147 45.5322C24.9827 45.7002 24.8147 45.8722 24.7107 46.0482C24.6067 46.2242 24.5547 46.4202 24.5547 46.6362C24.5547 46.8362 24.6147 47.0162 24.7347 47.1762C24.8627 47.3362 25.0387 47.4602 25.2627 47.5482C25.4867 47.6362 25.7507 47.6802 26.0547 47.6802C26.5427 47.6802 26.9907 47.5682 27.3987 47.3442C27.8067 47.1122 28.1507 46.7722 28.4307 46.3242C28.7187 45.8682 28.9227 45.3162 29.0427 44.6682L30.5427 45.1362C30.3747 45.9522 30.0747 46.6602 29.6427 47.2602C29.2107 47.8602 28.6787 48.3242 28.0467 48.6522C27.4147 48.9802 26.7067 49.1442 25.9227 49.1442Z" fill="#1A2536"></path> <path d="M33.7532 47.0802L33.6452 44.8362L37.6652 40.6002H39.8252L36.2012 44.5002L35.1212 45.6522L33.7532 47.0802ZM32.0132 49.0002V40.6002H33.9452V49.0002H32.0132ZM37.7612 49.0002L34.7732 45.3402L36.0452 43.9602L40.0292 49.0002H37.7612Z" fill="#1A2536"></path> </g> </mask> <g mask="url(#mask0_6934_217)"> <rect x="34.6133" y="36.1523" width="18.1824" height="20.1623" transform="rotate(43.5215 34.6133 36.1523)" fill="#B80D2D"></rect> </g> <mask id="mask1_6934_217" style="mask-type:alpha" maskUnits="userSpaceOnUse" x="12" y="40" width="29" height="10"> <g opacity="0.9"> <path d="M12.9912 49.0002L16.7352 40.6002H18.6552L22.4112 49.0002H20.3712L17.2992 41.5842H18.0672L14.9832 49.0002H12.9912ZM14.8632 47.2002L15.3792 45.7242H19.6992L20.2272 47.2002H14.8632Z" fill="#1A2536"></path> <path d="M25.9227 49.1442C25.3067 49.1442 24.7587 49.0442 24.2787 48.8442C23.7987 48.6442 23.4187 48.3722 23.1387 48.0282C22.8587 47.6842 22.7187 47.2882 22.7187 46.8402C22.7187 46.4242 22.8107 46.0522 22.9947 45.7242C23.1787 45.3882 23.4707 45.0762 23.8707 44.7882C24.2707 44.4922 24.7787 44.2042 25.3947 43.9242C25.8427 43.7162 26.1947 43.5322 26.4507 43.3722C26.7067 43.2122 26.8867 43.0602 26.9907 42.9162C27.0947 42.7642 27.1467 42.6122 27.1467 42.4602C27.1467 42.2522 27.0747 42.0842 26.9307 41.9562C26.7947 41.8282 26.5907 41.7642 26.3187 41.7642C26.0307 41.7642 25.8067 41.8362 25.6467 41.9802C25.4867 42.1242 25.4067 42.3082 25.4067 42.5322C25.4067 42.6522 25.4307 42.7722 25.4787 42.8922C25.5267 43.0042 25.6187 43.1362 25.7547 43.2882C25.8907 43.4322 26.0827 43.6202 26.3307 43.8522L30.7587 47.9562L29.7387 49.1442L24.8547 44.6082C24.5747 44.3522 24.3507 44.1122 24.1827 43.8882C24.0147 43.6642 23.8907 43.4442 23.8107 43.2282C23.7387 43.0122 23.7027 42.7882 23.7027 42.5562C23.7027 42.1482 23.8107 41.7882 24.0267 41.4762C24.2427 41.1642 24.5467 40.9242 24.9387 40.7562C25.3307 40.5802 25.7907 40.4922 26.3187 40.4922C26.8067 40.4922 27.2267 40.5722 27.5787 40.7322C27.9387 40.8842 28.2187 41.1042 28.4187 41.3922C28.6267 41.6802 28.7307 42.0242 28.7307 42.4242C28.7307 42.7762 28.6427 43.1002 28.4667 43.3962C28.2907 43.6842 28.0147 43.9562 27.6387 44.2122C27.2707 44.4682 26.7867 44.7282 26.1867 44.9922C25.7787 45.1762 25.4547 45.3562 25.2147 45.5322C24.9827 45.7002 24.8147 45.8722 24.7107 46.0482C24.6067 46.2242 24.5547 46.4202 24.5547 46.6362C24.5547 46.8362 24.6147 47.0162 24.7347 47.1762C24.8627 47.3362 25.0387 47.4602 25.2627 47.5482C25.4867 47.6362 25.7507 47.6802 26.0547 47.6802C26.5427 47.6802 26.9907 47.5682 27.3987 47.3442C27.8067 47.1122 28.1507 46.7722 28.4307 46.3242C28.7187 45.8682 28.9227 45.3162 29.0427 44.6682L30.5427 45.1362C30.3747 45.9522 30.0747 46.6602 29.6427 47.2602C29.2107 47.8602 28.6787 48.3242 28.0467 48.6522C27.4147 48.9802 26.7067 49.1442 25.9227 49.1442Z" fill="#1A2536"></path> <path d="M33.7532 47.0802L33.6452 44.8362L37.6652 40.6002H39.8252L36.2012 44.5002L35.1212 45.6522L33.7532 47.0802ZM32.0132 49.0002V40.6002H33.9452V49.0002H32.0132ZM37.7612 49.0002L34.7732 45.3402L36.0452 43.9602L40.0292 49.0002H37.7612Z" fill="#1A2536"></path> </g> </mask> <g mask="url(#mask1_6934_217)"> <rect x="23.792" y="30.5996" width="11.6801" height="22.4283" transform="rotate(43.52 23.792 30.5996)" fill="#0E3275"></rect> </g> <defs> <clipPath id="clip0_6934_217"> <rect width="51" height="33" fill="white"></rect> </clipPath> </defs> </svg> 